{"title":"Faster.2010.DVDRip.XviD-PRESTIGE","uid":6147261,"size":1564647820,"categoryP":"video","categoryS":"movies","magnet":"?xt=urn:btih:b160fa253decfda4e61d0a625322075288d52221&amp;dn=Faster.2010.DVDRip.XviD-PRESTIGE&amp;tr=udp%3A%2F%2Ftracker.openbittorrent.com%3A80&amp;tr=udp%3A%2F%2Fopen.demonii.com%3A1337&amp;tr=udp%3A%2F%2Ftracker.coppersurfer.tk%3A6969&amp;tr=udp%3A%2F%2Fexodus.desync.com%3A6969","seeders":0,"leechers":0,"uploader":"SAFCukO09","files":3,"time":1296693284,"description":"Infomation\nGeneral\nComplete name : Faster.2010.DVDRip.XviD-PRESTIGE.avi\nFormat : AVI\nFormat/Info : Audio Video Interleave\nFile size : 1.45 GiB\nDuration : 1h 37mn\nOverall bit rate : 2 117 Kbps\nWriting library : MPlayer\n\nVideo\nID : 0\nFormat : MPEG-4 Visual\nFormat profile : Simple@L1\nFormat settings, BVOP : No\nFormat settings, QPel : No\nFormat settings, GMC : No warppoints\nFormat settings, Matrix : Default (H.263)\nDuration : 1h 37mn\nBit rate : 1 849 Kbps\nWidth : 720 pixels\nHeight : 480 pixels\nDisplay aspect ratio : 3:2\nFrame rate : 23.976 fps\nStandard : NTSC\nColor space : YUV\nChroma subsampling : 4:2:0\nBit depth : 8 bits\nScan type : Interlaced\nScan order : Top Field First\nCompression mode : Lossy\nBits/(Pixel*Frame) : 0.223\nStream size : 1.27 GiB (87%)\nWriting library : Lavc52.0.0\n\nAudio\nID : 1\nFormat : MPEG Audio\nFormat version : Version 1\nFormat profile : Layer 3\nMode : Joint stereo\nMode extension : MS Stereo\nCodec ID : 55\nCodec ID/Hint : MP3\nDuration : 1h 37mn\nBit rate mode : Constant\nBit rate : 256 Kbps\nChannel(s) : 2 channels\nSampling rate : 44.1 KHz\nCompression mode : Lossy\nStream size : 179 MiB (12%)\nAlignment : Aligned on interleaves\nInterleave, duration : 26 ms (0.63 video frame)\nInterleave, preload duration : 809 ms\nWriting library : LAME3.97 ","torrent":{"xt":"urn:btih:b160fa253decfda4e61d0a625322075288d52221","amp;dn":"Faster.2010.DVDRip.XviD-PRESTIGE","amp;tr":["udp%3A%2F%2Ftracker.openbittorrent.com%3A80","udp%3A%2F%2Fopen.demonii.com%3A1337","udp%3A%2F%2Ftracker.coppersurfer.tk%3A6969","udp%3A%2F%2Fexodus.desync.com%3A6969"],"infoHash":"b160fa253decfda4e61d0a625322075288d52221","infoHashBuffer":{"type":"Buffer","data":[177,96,250,37,61,236,253,164,230,29,10,98,83,34,7,82,136,213,34,33]},"announce":[],"urlList":[]}}